HIERARCHY
ROOT Hips
{
  OFFSET 90.7885 88.945 -76.2838
  CHANNELS 6 Xposition Yposition Zposition Zrotation Xrotation Yrotation
  JOINT LeftUpLeg
  {
    OFFSET 8.64259 1.95398 -2.38835
    CHANNELS 3 Zrotation Xrotation Yrotation
    JOINT LeftLeg
    {
      OFFSET 43.7702 0 0
      CHANNELS 3 Zrotation Xrotation Yrotation
      JOINT LeftFoot
      {
        OFFSET 40.6238 0 0
        CHANNELS 3 Zrotation Xrotation Yrotation
        JOINT LeftToeBase
        {
          OFFSET 12.7242 0 0
          CHANNELS 3 Zrotation Xrotation Yrotation
          End Site
          {
            OFFSET 0 0 0
          }
        }
      }
    }
  }
  JOINT RightUpLeg
  {
    OFFSET -8.2249 1.95398 -2.59336
    CHANNELS 3 Zrotation Xrotation Yrotation
    JOINT RightLeg
    {
      OFFSET 43.5653 0 0
      CHANNELS 3 Zrotation Xrotation Yrotation
      JOINT RightFoot
      {
        OFFSET 40.6238 0 0
        CHANNELS 3 Zrotation Xrotation Yrotation
        JOINT RightToeBase
        {
          OFFSET 12.7242 0 0
          CHANNELS 3 Zrotation Xrotation Yrotation
          End Site
          {
            OFFSET 0 0 0
          }
        }
      }
    }
  }
  JOINT Spine
  {
    OFFSET 0.165834 0.87714 6.61349
    CHANNELS 3 Zrotation Xrotation Yrotation
    JOINT Spine1
    {
      OFFSET 7.38963 1.71661e-005 0
      CHANNELS 3 Zrotation Xrotation Yrotation
      JOINT Spine2
      {
        OFFSET 11.9445 1.14441e-005 0
        CHANNELS 3 Zrotation Xrotation Yrotation
        JOINT Spine3
        {
          OFFSET 14.7254 4.19617e-005 0
          CHANNELS 3 Zrotation Xrotation Yrotation
          JOINT Spine4
          {
            OFFSET 10.9679 0 0
            CHANNELS 3 Zrotation Xrotation Yrotation
            JOINT RightShoulder
            {
              OFFSET 2.46616 -1.6653 3.69651
              CHANNELS 3 Zrotation Xrotation Yrotation
              JOINT RightArm
              {
                OFFSET 13.0012 0 0
                CHANNELS 3 Zrotation Xrotation Yrotation
                JOINT RightForeArm
                {
                  OFFSET 28.7848 1.52588e-005 0
                  CHANNELS 3 Zrotation Xrotation Yrotation
                  JOINT RightHand
                  {
                    OFFSET 26.5688 1.52588e-005 0
                    CHANNELS 3 Zrotation Xrotation Yrotation
                    End Site
                    {
                      OFFSET 0 0 0
                    }
                  }
                }
              }
            }
            JOINT LeftShoulder
            {
              OFFSET 2.38034 -1.29275 -3.7523
              CHANNELS 3 Zrotation Xrotation Yrotation
              JOINT LeftArm
              {
                OFFSET 16.3182 6.10352e-005 0
                CHANNELS 3 Zrotation Xrotation Yrotation
                JOINT LeftForeArm
                {
                  OFFSET 27.0901 0 0
                  CHANNELS 3 Zrotation Xrotation Yrotation
                  JOINT LeftHand
                  {
                    OFFSET 24.5451 1.52588e-005 0
                    CHANNELS 3 Zrotation Xrotation Yrotation
                    End Site
                    {
                      OFFSET 0 0 0
                    }
                  }
                }
              }
            }
            JOINT Neck
            {
              OFFSET 5.0226 -0.0266342 0
              CHANNELS 3 Zrotation Xrotation Yrotation
              JOINT Head
              {
                OFFSET 6.69363 2.86102e-005 0
                CHANNELS 3 Zrotation Xrotation Yrotation
                End Site
                {
                  OFFSET 0 0 0
                }
              }
            }
          }
        }
      }
    }
  }
}
MOTION
Frames:	6
Frame Time:	0.0416667
41.2272 100.901 -256.549 -136.955 -81.3315 -138.386 -178.38 -6.57016 90.5698 -5.63155 -12.3138 1.69492 67.7299 4.22569 -1.55278 17.7338 -4.20724 6.84619 167.931 0.00344819 83.4802 -12.4387 -3.45812 -0.496295 65.4445 -2.73342 2.05102 24.0406 -0.124869 1.29263 0.384833 7.50277 -89.9152 11.8662 0.805245 0.0832344 0.195601 0.808131 0.0476985 -22.342 0.742997 0.32141 -2.32937 0.743005 0.321405 90.4557 -29.0216 -106.222 43.7719 -14.1369 -7.98303 5.791 -21.7874 -12.2959 -27.2224 -0.602127 -7.26532 -88.1566 -47.3557 80.9891 -25.8013 24.6881 -18.62 0.354325 0.473988 -4.43023 0.818816 -0.141627 -6.20415 3.4723 -1.03482 -2.1186 -4.04028 -0.666004 0.310254 
41.1056 100.919 -256.421 -141.111 -81.4886 -142.445 -178.048 -6.88647 90.9676 -5.65446 -11.3582 1.52059 67.94 4.27929 -1.84078 18.5651 -3.61325 6.073 167.825 -0.743879 83.5537 -11.8207 -3.14767 -0.375627 64.8674 -2.52963 1.4335 25.271 -0.246844 1.31373 0.283643 7.50353 -89.9822 11.8671 0.572475 -0.0256827 0.196284 0.570794 -0.0508723 -22.3398 0.553727 0.147558 -2.32715 0.553724 0.147552 89.3975 -28.9323 -108.386 43.203 -14.827 -6.53501 6.96817 -16.6902 -12.3174 -25.0176 0.151009 -9.84504 -87.9682 -49.5096 81.6834 -23.4896 25.7028 -17.9954 -0.241092 -0.171957 -5.40444 0.503467 -0.132816 -6.04461 2.30796 -0.834198 -0.653608 -3.76501 -0.711817 -0.496667 
40.92 100.928 -256.243 -144.271 -81.8573 -145.451 -177.61 -6.89823 91.5076 -5.68204 -10.16 1.26383 67.9435 4.27973 -1.46739 18.2032 -3.51916 5.97933 168.002 -1.33824 83.8603 -11.1737 -2.31483 -0.417921 64.6936 -2.4651 1.62388 25.1426 -0.151724 1.12967 0.266148 7.52452 -89.9932 11.8252 0.53249 -0.0433182 0.154324 0.530068 -0.066714 -22.3817 0.520888 0.118726 -2.36904 0.520888 0.118725 89.5724 -29.2665 -107.898 42.6962 -14.8543 -6.694 7.19636 -18.6882 -12.6828 -28.4434 -0.165204 -8.35183 -87.7975 -49.2832 81.8984 -23.5959 25.8659 -18.2291 -0.356351 -0.551572 -5.1815 0.696063 -0.139663 -6.16488 2.13006 -1.02936 -0.958571 -3.27023 -0.860008 -0.404852 
40.7669 100.928 -256.01 -145.122 -81.8334 -146.275 -177.509 -7.18582 91.6424 -5.56808 -9.93043 1.24106 68.0574 4.28786 -1.41217 18.8284 -3.61589 6.05808 168.018 -1.61171 83.964 -11.3075 -2.26042 -0.425885 65.2313 -2.62988 1.11287 24.4993 -0.285208 1.54581 0.293347 7.54985 -90.0262 11.7746 0.57112 -0.112598 0.10373 0.565611 -0.137633 -22.4324 0.578557 0.0642608 -2.41977 0.57855 0.0642513 89.5568 -28.7989 -108.119 42.8756 -14.8387 -6.42129 6.71679 -18.1816 -13.4063 -28.3968 -0.290462 -7.66672 -88.008 -49.8642 81.6871 -23.1699 25.9342 -18.2581 -0.428618 -0.416095 -5.18127 -0.523877 -0.12726 -6.77804 1.91358 -0.850602 -0.348404 -3.03231 -0.776508 -0.879096 
40.7608 100.935 -255.801 -145.023 -82.1236 -146.416 -177.999 -7.12651 91.1351 -5.33766 -10.2031 1.67283 67.9229 4.18382 -1.43816 18.7037 -3.73715 6.21608 167.92 -1.33441 83.7416 -11.4986 -2.07521 -0.405886 65.1006 -2.43885 1.29664 25.2124 -0.446311 1.75868 0.285951 7.51653 -89.9814 11.841 0.577432 -0.0245805 0.170176 0.575796 -0.0499732 -22.366 0.55812 0.150112 -2.35332 0.558122 0.150104 89.4599 -29.5461 -108.009 42.2758 -14.4212 -6.45783 6.92525 -20.6624 -13.4765 -28.9714 -0.781189 -6.06328 -88.0789 -49.6964 81.5499 -23.6121 25.4563 -17.633 -0.160037 -0.0525595 -5.09344 -0.521476 -0.125833 -6.27678 1.56287 -0.866559 -0.677716 -2.86799 -0.744563 -0.883058 
40.6365 100.927 -255.621 -143.989 -82.4108 -145.444 -178.146 -7.00858 91.0482 -5.19294 -10.6363 1.8284 68.1535 4.24031 -1.58222 18.6281 -3.46051 5.87951 168.108 -1.1969 83.8901 -11.3796 -2.31074 -0.529898 64.9914 -2.31416 0.725417 25.3805 -0.814557 2.5293 0.299045 7.51681 -89.9772 11.8404 0.605475 -0.0190396 0.169633 0.604052 -0.0456728 -22.3666 0.583204 0.163825 -2.35395 0.583196 0.163806 89.5407 -29.579 -107.836 42.1258 -14.367 -6.49303 6.65263 -21.5248 -14.2207 -28.7173 -0.756908 -6.3873 -87.9831 -49.5919 81.6744 -23.5638 25.6926 -17.6723 -0.315812 -0.0375231 -5.25065 -1.04654 -0.121819 -7.13464 2.05397 -0.686985 -0.746513 -2.72332 -0.556749 -0.603843 
